# Blender v2.66 (sub 1) OBJ File: ''
# www.blender.org
mtllib octahedron.mtl
o Cube
v 0.000000 -1.000000 -0.000000
v -0.000000 0.000000 1.000000
v -1.000000 0.000000 -0.000000
v 0.000000 0.000000 -1.000000
v 1.000000 0.000000 0.000000
v -0.000000 1.000000 0.000000
vt 0.000000 0.000000
vt 1.000000 0.000000
vt 1.000000 1.000000
vn 0.577350 -0.577350 -0.577350
vn 0.577350 -0.577350 0.577350
vn -0.577350 -0.577350 0.577350
vn -0.577350 -0.577350 -0.577350
vn 0.577350 0.577350 -0.577350
vn 0.577350 0.577350 0.577350
vn -0.577350 0.577350 0.577350
vn -0.577350 0.577350 -0.577350
usemtl Material
s off
f 4/1/1 5/2/1 1/3/1
f 1/1/2 5/2/2 2/3/2
f 1/1/3 2/2/3 3/3/3
f 3/1/4 4/2/4 1/3/4
f 5/1/5 4/2/5 6/3/5
f 6/1/6 2/2/6 5/3/6
f 6/1/7 3/2/7 2/3/7
f 4/1/8 3/2/8 6/3/8
